<svg version="1.1" id="Layer_1" xmlns="http://www.w3.org/2000/svg" xmlns:xlink="http://www.w3.org/1999/xlink" x="0px" y="0px"
	 width="100%" viewBox="0 0 200 76" enable-background="new 0 0 200 76" xml:space="preserve">
<path fill="#E0F3EF" opacity="1.000000" stroke="none" 
	d="
M129.000000,77.000000 
	C86.000008,77.000000 43.500019,77.000000 1.000023,77.000000 
	C1.000015,51.666683 1.000015,26.333366 1.000008,1.000036 
	C67.666634,1.000024 134.333267,1.000024 200.999939,1.000012 
	C200.999954,26.333296 200.999954,51.666592 200.999969,76.999939 
	C177.166672,77.000000 153.333328,77.000000 129.000000,77.000000 
M60.364132,20.032362 
	C55.266769,21.649954 50.169403,23.267546 44.962315,24.171926 
	C41.404964,17.550993 37.847618,10.930058 34.125999,4.003390 
	C26.842218,10.720940 20.658821,16.497015 14.394895,22.184399 
	C3.454216,32.118073 0.892726,45.028442 7.288019,58.393913 
	C9.296757,62.591961 11.298095,66.793549 13.455118,71.582993 
	C14.252127,72.060379 15.049135,72.537758 16.802500,73.133347 
	C20.950834,73.079643 25.129324,73.326538 29.241665,72.914017 
	C40.146015,71.820183 50.208698,68.474426 56.801228,59.075920 
	C65.256287,47.022133 65.308884,33.759953 60.364132,20.032362 
M166.879883,60.820915 
	C165.160141,62.486965 163.440414,64.153015 161.315414,66.211670 
	C171.965057,66.211670 182.294907,66.211670 192.958923,66.211670 
	C193.164078,62.973568 193.363724,59.822525 193.606049,55.997868 
	C192.326340,56.818268 191.762817,56.979733 191.550888,57.345123 
	C187.896561,63.645790 183.006454,65.900627 176.364014,63.767323 
	C170.557587,61.902512 172.869186,56.692345 172.326935,52.696148 
	C172.304764,52.532597 172.279602,52.347588 172.331680,52.199188 
	C172.882538,50.629108 173.637680,47.675644 173.980392,47.722252 
	C176.313828,48.039574 178.675156,48.765228 180.783478,49.838413 
	C181.692886,50.301327 182.021515,51.905243 182.613968,52.990826 
	C182.861130,52.925964 183.108276,52.861107 183.355423,52.796246 
	C183.355423,48.324120 183.355423,43.851997 183.355423,39.379871 
	C180.804855,43.985329 177.517365,45.815044 172.332764,44.309845 
	C172.332764,40.503487 172.208847,36.843487 172.408920,33.201283 
	C172.468292,32.120640 173.187820,30.486290 174.033051,30.134527 
	C179.523254,27.849646 186.925659,30.666071 190.090714,35.933567 
	C190.251495,36.201180 190.900284,36.175579 191.897705,36.437988 
	C191.578827,33.222542 191.297028,30.381075 191.056473,27.955503 
	C180.987473,27.955503 171.577789,27.955503 162.168106,27.955503 
	C167.351273,29.626925 167.037659,33.516506 166.980316,37.443329 
	C166.870850,44.938316 166.942154,52.435947 166.879883,60.820915 
M139.357407,48.836903 
	C144.689026,46.844208 146.596741,51.261547 149.417389,55.272469 
	C149.417389,49.390366 149.417389,44.638992 149.417389,39.887615 
	C146.957245,44.133629 144.074631,46.659573 138.986786,45.614330 
	C138.986786,40.371754 138.986786,35.464436 138.986786,30.295183 
	C142.721024,30.295183 146.431381,29.494629 149.533890,30.524761 
	C152.519287,31.516001 154.875946,34.400745 157.306931,36.296078 
	C159.247940,29.016806 158.122818,27.317955 150.703293,27.316687 
	C144.218323,27.315578 137.733032,27.286016 131.248672,27.349218 
	C130.179382,27.359644 129.114136,27.782471 127.138191,28.212490 
	C132.937546,31.099161 132.939896,31.099159 132.943192,37.009220 
	C132.946320,42.662788 133.013977,48.317497 132.922012,53.969570 
	C132.846420,58.615044 134.737137,64.225891 127.649139,65.971451 
	C133.536652,65.971451 139.424164,65.971451 145.311676,65.971451 
	C138.674561,62.622368 138.664352,62.622326 138.696259,54.647270 
	C138.702881,52.988136 138.816010,51.329430 139.357407,48.836903 
M81.013504,59.880707 
	C80.982101,53.054302 80.886230,46.227367 80.942703,39.401691 
	C80.978432,35.083160 79.250999,29.940826 85.567543,27.832792 
	C80.480125,27.832792 75.392708,27.832792 70.305298,27.832792 
	C76.466888,29.668646 75.033943,34.520737 75.069504,38.646946 
	C75.115433,43.975365 75.140823,49.305359 75.061958,54.633003 
	C74.997108,59.013504 76.650650,64.244980 69.574478,65.816132 
	C71.546875,66.483269 73.106384,66.668152 74.666664,66.674858 
	C81.993637,66.706367 89.320831,66.691864 96.647942,66.688049 
	C103.136421,66.684669 105.143616,62.839390 101.864250,56.704479 
	C96.740166,65.114166 86.746567,67.069649 81.013504,59.880707 
M111.944046,53.384918 
	C111.760506,58.195919 113.796921,63.944321 106.696190,66.158524 
	C112.086174,66.158524 117.476158,66.158524 122.866142,66.158524 
	C123.326675,65.755234 123.787201,65.351944 124.247734,64.948662 
	C116.157852,64.537544 117.779572,59.345543 117.706421,55.058266 
	C117.624100,50.233864 117.645569,45.406502 117.699471,40.581295 
	C117.751747,35.901493 116.171410,30.587513 122.249504,27.884411 
	C117.216591,27.884411 112.183678,27.884411 107.150772,27.884411 
	C106.731514,28.277264 106.312263,28.670118 105.893013,29.062971 
	C113.193443,29.660286 111.881676,34.399403 111.930847,38.434685 
	C111.987617,43.093399 111.944031,47.753330 111.944046,53.384918 
z"/>
<path fill="#A2E787" opacity="1.000000" stroke="none" 
	d="
M15.846144,73.015144 
	C15.049135,72.537758 14.252127,72.060379 13.661625,70.972961 
	C14.012620,66.057617 14.195390,61.753189 14.294790,57.446835 
	C14.671634,41.120598 22.641008,30.998312 38.375137,26.861464 
	C40.625107,26.269894 42.840595,25.547163 45.072041,24.885136 
	C50.169403,23.267546 55.266769,21.649954 60.691555,20.436058 
	C54.183182,34.261726 45.717239,46.529686 34.666164,56.822350 
	C28.614866,62.458351 22.133549,67.632645 15.846144,73.015144 
z"/>
<path fill="#04AB96" opacity="1.000000" stroke="none" 
	d="
M45.017178,24.528530 
	C42.840595,25.547163 40.625107,26.269894 38.375137,26.861464 
	C22.641008,30.998312 14.671634,41.120598 14.294790,57.446835 
	C14.195390,61.753189 14.012620,66.057617 13.585476,70.678223 
	C11.298095,66.793549 9.296757,62.591961 7.288019,58.393913 
	C0.892726,45.028442 3.454216,32.118073 14.394895,22.184399 
	C20.658821,16.497015 26.842218,10.720940 34.125999,4.003390 
	C37.847618,10.930058 41.404964,17.550993 45.017178,24.528530 
z"/>
<path fill="#04CD78" opacity="1.000000" stroke="none" 
	d="
M16.324322,73.074249 
	C22.133549,67.632645 28.614866,62.458351 34.666164,56.822350 
	C45.717239,46.529686 54.183182,34.261726 61.082062,20.498983 
	C65.308884,33.759953 65.256287,47.022133 56.801228,59.075920 
	C50.208698,68.474426 40.146015,71.820183 29.241665,72.914017 
	C25.129324,73.326538 20.950834,73.079643 16.324322,73.074249 
z"/>
<path fill="#19B29F" opacity="1.000000" stroke="none" 
	d="
M166.909149,60.376698 
	C166.942154,52.435947 166.870850,44.938316 166.980316,37.443329 
	C167.037659,33.516506 167.351273,29.626925 162.168106,27.955503 
	C171.577789,27.955503 180.987473,27.955503 191.056473,27.955503 
	C191.297028,30.381075 191.578827,33.222542 191.897705,36.437988 
	C190.900284,36.175579 190.251495,36.201180 190.090714,35.933567 
	C186.925659,30.666071 179.523254,27.849646 174.033051,30.134527 
	C173.187820,30.486290 172.468292,32.120640 172.408920,33.201283 
	C172.208847,36.843487 172.332764,40.503487 172.332764,44.309845 
	C177.517365,45.815044 180.804855,43.985329 183.355423,39.379871 
	C183.355423,43.851997 183.355423,48.324120 183.355423,52.796246 
	C183.108276,52.861107 182.861130,52.925964 182.613968,52.990826 
	C182.021515,51.905243 181.692886,50.301327 180.783478,49.838413 
	C178.675156,48.765228 176.313828,48.039574 173.980392,47.722252 
	C173.637680,47.675644 172.882538,50.629108 172.331680,52.199188 
	C172.279602,52.347588 172.304764,52.532597 172.326935,52.696148 
	C172.869186,56.692345 170.557587,61.902512 176.364014,63.767323 
	C183.006454,65.900627 187.896561,63.645790 191.550888,57.345123 
	C191.762817,56.979733 192.326340,56.818268 193.606049,55.997868 
	C193.363724,59.822525 193.164078,62.973568 192.958923,66.211670 
	C182.294907,66.211670 171.965057,66.211670 161.315414,66.211670 
	C163.440414,64.153015 165.160141,62.486965 166.909149,60.376698 
z"/>
<path fill="#1BB3A0" opacity="1.000000" stroke="none" 
	d="
M139.118744,49.253716 
	C138.816010,51.329430 138.702881,52.988136 138.696259,54.647270 
	C138.664352,62.622326 138.674561,62.622368 145.311676,65.971451 
	C139.424164,65.971451 133.536652,65.971451 127.649139,65.971451 
	C134.737137,64.225891 132.846420,58.615044 132.922012,53.969570 
	C133.013977,48.317497 132.946320,42.662788 132.943192,37.009220 
	C132.939896,31.099159 132.937546,31.099161 127.138191,28.212490 
	C129.114136,27.782471 130.179382,27.359644 131.248672,27.349218 
	C137.733032,27.286016 144.218323,27.315578 150.703293,27.316687 
	C158.122818,27.317955 159.247940,29.016806 157.306931,36.296078 
	C154.875946,34.400745 152.519287,31.516001 149.533890,30.524761 
	C146.431381,29.494629 142.721024,30.295183 138.986786,30.295183 
	C138.986786,35.464436 138.986786,40.371754 138.986786,45.614330 
	C144.074631,46.659573 146.957245,44.133629 149.417389,39.887615 
	C149.417389,44.638992 149.417389,49.390366 149.417389,55.272469 
	C146.596741,51.261547 144.689026,46.844208 139.118744,49.253716 
z"/>
<path fill="#1CB3A0" opacity="1.000000" stroke="none" 
	d="
M81.101440,60.315357 
	C86.746567,67.069649 96.740166,65.114166 101.864250,56.704479 
	C105.143616,62.839390 103.136421,66.684669 96.647942,66.688049 
	C89.320831,66.691864 81.993637,66.706367 74.666664,66.674858 
	C73.106384,66.668152 71.546875,66.483269 69.574478,65.816132 
	C76.650650,64.244980 74.997108,59.013504 75.061958,54.633003 
	C75.140823,49.305359 75.115433,43.975365 75.069504,38.646946 
	C75.033943,34.520737 76.466888,29.668646 70.305298,27.832792 
	C75.392708,27.832792 80.480125,27.832792 85.567543,27.832792 
	C79.250999,29.940826 80.978432,35.083160 80.942703,39.401691 
	C80.886230,46.227367 80.982101,53.054302 81.101440,60.315357 
z"/>
<path fill="#1BB3A0" opacity="1.000000" stroke="none" 
	d="
M111.944031,52.898827 
	C111.944031,47.753330 111.987617,43.093399 111.930847,38.434685 
	C111.881676,34.399403 113.193443,29.660286 105.893013,29.062971 
	C106.312263,28.670118 106.731514,28.277264 107.150772,27.884411 
	C112.183678,27.884411 117.216591,27.884411 122.249504,27.884411 
	C116.171410,30.587513 117.751747,35.901493 117.699471,40.581295 
	C117.645569,45.406502 117.624100,50.233864 117.706421,55.058266 
	C117.779572,59.345543 116.157852,64.537544 124.247734,64.948662 
	C123.787201,65.351944 123.326675,65.755234 122.866142,66.158524 
	C117.476158,66.158524 112.086174,66.158524 106.696190,66.158524 
	C113.796921,63.944321 111.760506,58.195919 111.944031,52.898827 
z"/>
</svg>